# xmcd
#
# Track frame offsets:
#	150
#	17858
#	36738
#	55992
#	86637
#	104729
#	126863
#	156964
#	179533
#	211470
#	233848
#	252385
#	272034
#	306585
#
# Disc length: 4279 seconds
#
# Revision: 5
# Processed by: cddbd v1.4PL0 Copyright (c) Steve Scherf et al.
# Submitted via: EasyCDDAExtractor 6.2.0.3
#
DISCID=d910b50e
DTITLE=Gary Moore - Ballads and Blues 1982~1994
DYEAR=1994
DGENRE=Ballad
TTITLE0=Always Gonna Love You
TTITLE1=Still Got the Blues
TTITLE2=Empty Rooms
TTITLE3=Parisienne Walkways
TTITLE4=One Day
TTITLE5=Separate Ways
TTITLE6=Story of the Blues
TTITLE7=Crying in the Shadows
TTITLE8=With Love (Remember)
TTITLE9=Midnight Blues
TTITLE10=Falling in Love with You
TTITLE11=Jumpin' at Shadows
TTITLE12=Blues for Narada
TTITLE13=Johnny Boy
EXTD=Virgin Records
EXTT0=
EXTT1=
EXTT2=
EXTT3=
EXTT4=
EXTT5=
EXTT6=
EXTT7=
EXTT8=
EXTT9=
EXTT10=
EXTT11=
EXTT12=
EXTT13=
PLAYORDER=
